mono_size_07_05_design_1.ufo
<glyph name="percent" format="2">
  <advance width="768" />
  <unicode hex="0025" />
  <outline>
    <contour>
      <point x="0.0" y="219.0" type="line" />
      <point x="549.0" y="768.0" type="line" />
      <point x="640.0" y="677.0" type="line" />
      <point x="91.0" y="128.0" type="line" />
    </contour>
    <contour>
      <point x="0.0" y="677.0" type="line" />
      <point x="0.0" y="731.0" type="line" />
      <point x="37.0" y="768.0" type="line" />
      <point x="91.0" y="768.0" type="line" />
      <point x="128.0" y="731.0" type="line" />
      <point x="128.0" y="677.0" type="line" />
      <point x="91.0" y="640.0" type="line" />
      <point x="37.0" y="640.0" type="line" />
    </contour>
    <contour>
      <point x="512.0" y="165.0" type="line" />
      <point x="512.0" y="219.0" type="line" />
      <point x="549.0" y="256.0" type="line" />
      <point x="603.0" y="256.0" type="line" />
      <point x="640.0" y="219.0" type="line" />
      <point x="640.0" y="165.0" type="line" />
      <point x="603.0" y="128.0" type="line" />
      <point x="549.0" y="128.0" type="line" />
    </contour>
  </outline>
</glyph>
<glyph name="38" format="2">
  <advance width="768" />
  <unicode hex="0026" />
  <outline>
    <contour>
      <point x="0.0" y="165.0" type="line" />
      <point x="0.0" y="347.0" type="line" />
      <point x="101.0" y="448.0" type="line" />
      <point x="0.0" y="549.0" type="line" />
      <point x="0.0" y="731.0" type="line" />
      <point x="165.0" y="896.0" type="line" />
      <point x="347.0" y="896.0" type="line" />
      <point x="512.0" y="731.0" type="line" />
      <point x="421.0" y="640.0" type="line" />
      <point x="293.0" y="768.0" type="line" />
      <point x="219.0" y="768.0" type="line" />
      <point x="128.0" y="677.0" type="line" />
      <point x="128.0" y="603.0" type="line" />
      <point x="448.0" y="283.0" type="line" />
      <point x="549.0" y="384.0" type="line" />
      <point x="640.0" y="293.0" type="line" />
      <point x="539.0" y="192.0" type="line" />
      <point x="640.0" y="91.0" type="line" />
      <point x="549.0" y="0.0" type="line" />
      <point x="448.0" y="101.0" type="line" />
      <point x="347.0" y="0.0" type="line" />
      <point x="165.0" y="0.0" type="line" />
    </contour>
    <contour>
      <point x="128.0" y="219.0" type="line" />
      <point x="219.0" y="128.0" type="line" />
      <point x="293.0" y="128.0" type="line" />
      <point x="357.0" y="192.0" type="line" />
      <point x="192.0" y="357.0" type="line" />
      <point x="128.0" y="293.0" type="line" />
    </contour>
  </outline>
</glyph>
<glyph name="parenleft" format="2">
  <advance width="768" />
  <unicode hex="0028" />
  <outline>
    <contour>
      <point x="128.0" y="37.0" type="line" />
      <point x="128.0" y="603.0" type="line" />
      <point x="421.0" y="896.0" type="line" />
      <point x="512.0" y="805.0" type="line" />
      <point x="256.0" y="549.0" type="line" />
      <point x="256.0" y="91.0" type="line" />
      <point x="512.0" y="-165.0" type="line" />
      <point x="421.0" y="-256.0" type="line" />
    </contour>
  </outline>
</glyph>
<glyph name="asterisk" format="2">
  <advance width="768" />
  <unicode hex="002A" />
  <outline>
    <contour>
      <point x="0.0" y="347.0" type="line" />
      <point x="101.0" y="448.0" type="line" />
      <point x="0.0" y="549.0" type="line" />
      <point x="91.0" y="640.0" type="line" />
      <point x="219.0" y="512.0" type="line" />
      <point x="256.0" y="512.0" type="line" />
      <point x="256.0" y="768.0" type="line" />
      <point x="384.0" y="768.0" type="line" />
      <point x="384.0" y="512.0" type="line" />
      <point x="421.0" y="512.0" type="line" />
      <point x="549.0" y="640.0" type="line" />
      <point x="640.0" y="549.0" type="line" />
      <point x="539.0" y="448.0" type="line" />
      <point x="640.0" y="347.0" type="line" />
      <point x="549.0" y="256.0" type="line" />
      <point x="421.0" y="384.0" type="line" />
      <point x="384.0" y="384.0" type="line" />
      <point x="384.0" y="128.0" type="line" />
      <point x="256.0" y="128.0" type="line" />
      <point x="256.0" y="384.0" type="line" />
      <point x="219.0" y="384.0" type="line" />
      <point x="91.0" y="256.0" type="line" />
    </contour>
  </outline>
</glyph>
<glyph name="46" format="2">
  <advance width="768" />
  <unicode hex="002E" />
  <outline>
    <contour>
      <point x="256.0" y="37.0" type="line" />
      <point x="256.0" y="91.0" type="line" />
      <point x="293.0" y="128.0" type="line" />
      <point x="347.0" y="128.0" type="line" />
      <point x="384.0" y="91.0" type="line" />
      <point x="384.0" y="37.0" type="line" />
      <point x="347.0" y="0.0" type="line" />
      <point x="293.0" y="0.0" type="line" />
    </contour>
  </outline>
</glyph>
<glyph name="49" format="2">
  <advance width="768" />
  <unicode hex="0031" />
  <outline>
    <contour>
      <point x="128.0" y="603.0" type="line" />
      <point x="421.0" y="896.0" type="line" />
      <point x="512.0" y="896.0" type="line" />
      <point x="512.0" y="0.0" type="line" />
      <point x="384.0" y="0.0" type="line" />
      <point x="384.0" y="677.0" type="line" />
      <point x="219.0" y="512.0" type="line" />
    </contour>
  </outline>
</glyph>
<glyph name="colon" format="2">
  <advance width="768" />
  <unicode hex="003A" />
  <outline>
    <contour>
      <point x="256.0" y="37.0" type="line" />
      <point x="256.0" y="91.0" type="line" />
      <point x="293.0" y="128.0" type="line" />
      <point x="347.0" y="128.0" type="line" />
      <point x="384.0" y="91.0" type="line" />
      <point x="384.0" y="37.0" type="line" />
      <point x="347.0" y="0.0" type="line" />
      <point x="293.0" y="0.0" type="line" />
    </contour>
    <contour>
      <point x="256.0" y="677.0" type="line" />
      <point x="256.0" y="731.0" type="line" />
      <point x="293.0" y="768.0" type="line" />
      <point x="347.0" y="768.0" type="line" />
      <point x="384.0" y="731.0" type="line" />
      <point x="384.0" y="677.0" type="line" />
      <point x="347.0" y="640.0" type="line" />
      <point x="293.0" y="640.0" type="line" />
    </contour>
  </outline>
</glyph>
<glyph name="semicolon" format="2">
  <advance width="768" />
  <unicode hex="003B" />
  <outline>
    <contour>
      <point x="0.0" y="-165.0" type="line" />
      <point x="293.0" y="128.0" type="line" />
      <point x="384.0" y="37.0" type="line" />
      <point x="91.0" y="-256.0" type="line" />
    </contour>
    <contour>
      <point x="256.0" y="677.0" type="line" />
      <point x="256.0" y="731.0" type="line" />
      <point x="293.0" y="768.0" type="line" />
      <point x="347.0" y="768.0" type="line" />
      <point x="384.0" y="731.0" type="line" />
      <point x="384.0" y="677.0" type="line" />
      <point x="347.0" y="640.0" type="line" />
      <point x="293.0" y="640.0" type="line" />
    </contour>
  </outline>
</glyph>
<glyph name="greater" format="2">
  <advance width="768" />
  <unicode hex="003E" />
  <outline>
    <contour>
      <point x="128.0" y="219.0" type="line" />
      <point x="357.0" y="448.0" type="line" />
      <point x="128.0" y="677.0" type="line" />
      <point x="219.0" y="768.0" type="line" />
      <point x="539.0" y="448.0" type="line" />
      <point x="219.0" y="128.0" type="line" />
    </contour>
  </outline>
</glyph>
<glyph name="at" format="2">
  <advance width="768" />
  <unicode hex="0040" />
  <outline>
    <contour>
      <point x="0.0" y="165.0" type="line" />
      <point x="0.0" y="731.0" type="line" />
      <point x="165.0" y="896.0" type="line" />
      <point x="475.0" y="896.0" type="line" />
      <point x="640.0" y="731.0" type="line" />
      <point x="640.0" y="347.0" type="line" />
      <point x="549.0" y="256.0" type="line" />
      <point x="347.0" y="256.0" type="line" />
      <point x="256.0" y="347.0" type="line" />
      <point x="256.0" y="549.0" type="line" />
      <point x="347.0" y="640.0" type="line" />
      <point x="512.0" y="640.0" type="line" />
      <point x="512.0" y="677.0" type="line" />
      <point x="421.0" y="768.0" type="line" />
      <point x="219.0" y="768.0" type="line" />
      <point x="128.0" y="677.0" type="line" />
      <point x="128.0" y="219.0" type="line" />
      <point x="219.0" y="128.0" type="line" />
      <point x="640.0" y="128.0" type="line" />
      <point x="640.0" y="0.0" type="line" />
      <point x="165.0" y="0.0" type="line" />
    </contour>
    <contour>
      <point x="384.0" y="384.0" type="line" />
      <point x="512.0" y="384.0" type="line" />
      <point x="512.0" y="512.0" type="line" />
      <point x="384.0" y="512.0" type="line" />
    </contour>
  </outline>
</glyph>
<glyph name="68" format="2">
  <advance width="768" />
  <unicode hex="0044" />
  <outline>
    <contour>
      <point x="0.0" y="0.0" type="line" />
      <point x="0.0" y="896.0" type="line" />
      <point x="475.0" y="896.0" type="line" />
      <point x="640.0" y="731.0" type="line" />
      <point x="640.0" y="165.0" type="line" />
      <point x="475.0" y="0.0" type="line" />
    </contour>
    <contour>
      <point x="128.0" y="128.0" type="line" />
      <point x="421.0" y="128.0" type="line" />
      <point x="512.0" y="219.0" type="line" />
      <point x="512.0" y="677.0" type="line" />
      <point x="421.0" y="768.0" type="line" />
      <point x="128.0" y="768.0" type="line" />
    </contour>
  </outline>
</glyph>
<glyph name="87" format="2">
  <advance width="768" />
  <unicode hex="0057" />
  <outline>
    <contour>
      <point x="0.0" y="0.0" type="line" />
      <point x="0.0" y="896.0" type="line" />
      <point x="128.0" y="896.0" type="line" />
      <point x="128.0" y="219.0" type="line" />
      <point x="320.0" y="411.0" type="line" />
      <point x="512.0" y="219.0" type="line" />
      <point x="512.0" y="896.0" type="line" />
      <point x="640.0" y="896.0" type="line" />
      <point x="640.0" y="0.0" type="line" />
      <point x="549.0" y="0.0" type="line" />
      <point x="320.0" y="229.0" type="line" />
      <point x="91.0" y="0.0" type="line" />
    </contour>
  </outline>
</glyph>
<glyph name="bracketright" format="2">
  <advance width="768" />
  <unicode hex="005D" />
  <outline>
    <contour>
      <point x="128.0" y="-128.0" type="line" />
      <point x="384.0" y="-128.0" type="line" />
      <point x="384.0" y="768.0" type="line" />
      <point x="128.0" y="768.0" type="line" />
      <point x="128.0" y="896.0" type="line" />
      <point x="512.0" y="896.0" type="line" />
      <point x="512.0" y="-256.0" type="line" />
      <point x="128.0" y="-256.0" type="line" />
    </contour>
  </outline>
</glyph>
<glyph name="94" format="2">
  <advance width="768" />
  <unicode hex="005E" />
  <outline>
    <contour>
      <point x="128.0" y="731.0" type="line" />
      <point x="320.0" y="923.0" type="line" />
      <point x="512.0" y="731.0" type="line" />
      <point x="421.0" y="640.0" type="line" />
      <point x="320.0" y="741.0" type="line" />
      <point x="219.0" y="640.0" type="line" />
    </contour>
  </outline>
</glyph>
<glyph name="96" format="2">
  <advance width="768" />
  <unicode hex="0060" />
  <outline>
    <contour>
      <point x="128.0" y="805.0" type="line" />
      <point x="219.0" y="896.0" type="line" />
      <point x="512.0" y="603.0" type="line" />
      <point x="421.0" y="512.0" type="line" />
    </contour>
  </outline>
</glyph>
<glyph name="b" format="2">
  <advance width="768" />
  <unicode hex="0062" />
  <outline>
    <contour>
      <point x="0.0" y="0.0" type="line" />
      <point x="0.0" y="896.0" type="line" />
      <point x="128.0" y="896.0" type="line" />
      <point x="128.0" y="640.0" type="line" />
      <point x="475.0" y="640.0" type="line" />
      <point x="640.0" y="475.0" type="line" />
      <point x="640.0" y="165.0" type="line" />
      <point x="475.0" y="0.0" type="line" />
    </contour>
    <contour>
      <point x="128.0" y="128.0" type="line" />
      <point x="421.0" y="128.0" type="line" />
      <point x="512.0" y="219.0" type="line" />
      <point x="512.0" y="421.0" type="line" />
      <point x="421.0" y="512.0" type="line" />
      <point x="128.0" y="512.0" type="line" />
    </contour>
  </outline>
</glyph>
<glyph name="102" format="2">
  <advance width="768" />
  <unicode hex="0066" />
  <outline>
    <contour>
      <point x="0.0" y="512.0" type="line" />
      <point x="0.0" y="640.0" type="line" />
      <point x="128.0" y="640.0" type="line" />
      <point x="128.0" y="731.0" type="line" />
      <point x="293.0" y="896.0" type="line" />
      <point x="475.0" y="896.0" type="line" />
      <point x="640.0" y="731.0" type="line" />
      <point x="549.0" y="640.0" type="line" />
      <point x="421.0" y="768.0" type="line" />
      <point x="347.0" y="768.0" type="line" />
      <point x="256.0" y="677.0" type="line" />
      <point x="256.0" y="640.0" type="line" />
      <point x="384.0" y="640.0" type="line" />
      <point x="384.0" y="512.0" type="line" />
      <point x="256.0" y="512.0" type="line" />
      <point x="256.0" y="0.0" type="line" />
      <point x="128.0" y="0.0" type="line" />
      <point x="128.0" y="512.0" type="line" />
    </contour>
  </outline>
</glyph>
<glyph name="l" format="2">
  <advance width="768" />
  <unicode hex="006C" />
  <outline>
    <contour>
      <point x="0.0" y="0.0" type="line" />
      <point x="0.0" y="128.0" type="line" />
      <point x="256.0" y="128.0" type="line" />
      <point x="256.0" y="768.0" type="line" />
      <point x="128.0" y="768.0" type="line" />
      <point x="128.0" y="896.0" type="line" />
      <point x="384.0" y="896.0" type="line" />
      <point x="384.0" y="128.0" type="line" />
      <point x="640.0" y="128.0" type="line" />
      <point x="640.0" y="0.0" type="line" />
    </contour>
  </outline>
</glyph>
<glyph name="w" format="2">
  <advance width="768" />
  <unicode hex="0077" />
  <outline>
    <contour>
      <point x="0.0" y="165.0" type="line" />
      <point x="0.0" y="640.0" type="line" />
      <point x="128.0" y="640.0" type="line" />
      <point x="128.0" y="219.0" type="line" />
      <point x="192.0" y="155.0" type="line" />
      <point x="256.0" y="219.0" type="line" />
      <point x="256.0" y="640.0" type="line" />
      <point x="384.0" y="640.0" type="line" />
      <point x="384.0" y="219.0" type="line" />
      <point x="448.0" y="155.0" type="line" />
      <point x="512.0" y="219.0" type="line" />
      <point x="512.0" y="640.0" type="line" />
      <point x="640.0" y="640.0" type="line" />
      <point x="640.0" y="165.0" type="line" />
      <point x="475.0" y="0.0" type="line" />
      <point x="421.0" y="0.0" type="line" />
      <point x="320.0" y="101.0" type="line" />
      <point x="219.0" y="0.0" type="line" />
      <point x="165.0" y="0.0" type="line" />
    </contour>
  </outline>
</glyph>
<glyph name="120" format="2">
  <advance width="768" />
  <unicode hex="0078" />
  <outline>
    <contour>
      <point x="0.0" y="91.0" type="line" />
      <point x="229.0" y="320.0" type="line" />
      <point x="0.0" y="549.0" type="line" />
      <point x="91.0" y="640.0" type="line" />
      <point x="320.0" y="411.0" type="line" />
      <point x="549.0" y="640.0" type="line" />
      <point x="640.0" y="549.0" type="line" />
      <point x="411.0" y="320.0" type="line" />
      <point x="640.0" y="91.0" type="line" />
      <point x="549.0" y="0.0" type="line" />
      <point x="320.0" y="229.0" type="line" />
      <point x="91.0" y="0.0" type="line" />
    </contour>
  </outline>
</glyph>
<glyph name="z" format="2">
  <advance width="768" />
  <unicode hex="007A" />
  <outline>
    <contour>
      <point x="0.0" y="0.0" type="line" />
      <point x="0.0" y="91.0" type="line" />
      <point x="421.0" y="512.0" type="line" />
      <point x="0.0" y="512.0" type="line" />
      <point x="0.0" y="640.0" type="line" />
      <point x="640.0" y="640.0" type="line" />
      <point x="640.0" y="549.0" type="line" />
      <point x="219.0" y="128.0" type="line" />
      <point x="640.0" y="128.0" type="line" />
      <point x="640.0" y="0.0" type="line" />
    </contour>
  </outline>
</glyph>
<glyph name="braceleft" format="2">
  <advance width="768" />
  <unicode hex="007B" />
  <outline>
    <contour>
      <point x="101.0" y="320.0" type="line" />
      <point x="256.0" y="475.0" type="line" />
      <point x="256.0" y="731.0" type="line" />
      <point x="421.0" y="896.0" type="line" />
      <point x="512.0" y="805.0" type="line" />
      <point x="384.0" y="677.0" type="line" />
      <point x="384.0" y="421.0" type="line" />
      <point x="283.0" y="320.0" type="line" />
      <point x="384.0" y="219.0" type="line" />
      <point x="384.0" y="-37.0" type="line" />
      <point x="512.0" y="-165.0" type="line" />
      <point x="421.0" y="-256.0" type="line" />
      <point x="256.0" y="-91.0" type="line" />
      <point x="256.0" y="165.0" type="line" />
    </contour>
  </outline>
</glyph>
<glyph name="124" format="2">
  <advance width="768" />
  <unicode hex="007C" />
  <outline>
    <contour>
      <point x="256.0" y="-256.0" type="line" />
      <point x="256.0" y="896.0" type="line" />
      <point x="384.0" y="896.0" type="line" />
      <point x="384.0" y="-256.0" type="line" />
    </contour>
  </outline>
</glyph>
<glyph name="125" format="2">
  <advance width="768" />
  <unicode hex="007D" />
  <outline>
    <contour>
      <point x="128.0" y="-165.0" type="line" />
      <point x="256.0" y="-37.0" type="line" />
      <point x="256.0" y="219.0" type="line" />
      <point x="357.0" y="320.0" type="line" />
      <point x="256.0" y="421.0" type="line" />
      <point x="256.0" y="677.0" type="line" />
      <point x="128.0" y="805.0" type="line" />
      <point x="219.0" y="896.0" type="line" />
      <point x="384.0" y="731.0" type="line" />
      <point x="384.0" y="475.0" type="line" />
      <point x="539.0" y="320.0" type="line" />
      <point x="384.0" y="165.0" type="line" />
      <point x="384.0" y="-91.0" type="line" />
      <point x="219.0" y="-256.0" type="line" />
    </contour>
  </outline>
</glyph>
<glyph name="asciitilde" format="2">
  <advance width="768" />
  <unicode hex="007E" />
  <outline>
    <contour>
      <point x="0.0" y="731.0" type="line" />
      <point x="192.0" y="923.0" type="line" />
      <point x="448.0" y="667.0" type="line" />
      <point x="549.0" y="768.0" type="line" />
      <point x="640.0" y="677.0" type="line" />
      <point x="448.0" y="485.0" type="line" />
      <point x="192.0" y="741.0" type="line" />
      <point x="91.0" y="640.0" type="line" />
    </contour>
  </outline>
</glyph>
<glyph name="215" format="2">
  <advance width="768" />
  <unicode hex="00D7" />
  <outline>
    <contour>
      <point x="128.0" y="347.0" type="line" />
      <point x="229.0" y="448.0" type="line" />
      <point x="128.0" y="549.0" type="line" />
      <point x="219.0" y="640.0" type="line" />
      <point x="320.0" y="539.0" type="line" />
      <point x="421.0" y="640.0" type="line" />
      <point x="512.0" y="549.0" type="line" />
      <point x="411.0" y="448.0" type="line" />
      <point x="512.0" y="347.0" type="line" />
      <point x="421.0" y="256.0" type="line" />
      <point x="320.0" y="357.0" type="line" />
      <point x="219.0" y="256.0" type="line" />
    </contour>
  </outline>
</glyph>
<glyph name="uni0394" format="2">
  <advance width="1536" />
  <unicode hex="0394" />
  <outline>
    <contour>
      <point x="256.0" y="0.0" type="line" />
      <point x="1152.0" y="0.0" type="line" />
      <point x="704.0" y="896.0" type="line" />
    </contour>
    <contour>
      <point x="465.0" y="128.0" type="line" />
      <point x="704.0" y="606.0" type="line" />
      <point x="943.0" y="128.0" type="line" />
    </contour>
  </outline>
</glyph>
<glyph name="923" format="2">
  <advance width="1536" />
  <unicode hex="039B" />
  <outline>
    <contour>
      <point x="256.0" y="0.0" type="line" />
      <point x="401.0" y="0.0" type="line" />
      <point x="704.0" y="606.0" type="line" />
      <point x="1007.0" y="0.0" type="line" />
      <point x="1152.0" y="0.0" type="line" />
      <point x="704.0" y="896.0" type="line" />
    </contour>
  </outline>
</glyph>
<glyph name="949" format="2">
  <advance width="768" />
  <unicode hex="03B5" />
  <outline>
    <contour>
      <point x="0.0" y="165.0" type="line" />
      <point x="0.0" y="219.0" type="line" />
      <point x="101.0" y="320.0" type="line" />
      <point x="0.0" y="421.0" type="line" />
      <point x="0.0" y="475.0" type="line" />
      <point x="165.0" y="640.0" type="line" />
      <point x="640.0" y="640.0" type="line" />
      <point x="640.0" y="512.0" type="line" />
      <point x="219.0" y="512.0" type="line" />
      <point x="155.0" y="448.0" type="line" />
      <point x="219.0" y="384.0" type="line" />
      <point x="640.0" y="384.0" type="line" />
      <point x="640.0" y="256.0" type="line" />
      <point x="219.0" y="256.0" type="line" />
      <point x="155.0" y="192.0" type="line" />
      <point x="219.0" y="128.0" type="line" />
      <point x="640.0" y="128.0" type="line" />
      <point x="640.0" y="0.0" type="line" />
      <point x="165.0" y="0.0" type="line" />
    </contour>
  </outline>
</glyph>
<glyph name="957" format="2">
  <advance width="768" />
  <unicode hex="03BD" />
  <outline>
    <contour>
      <point x="0.0" y="0.0" type="line" />
      <point x="0.0" y="640.0" type="line" />
      <point x="128.0" y="640.0" type="line" />
      <point x="128.0" y="128.0" type="line" />
      <point x="293.0" y="128.0" type="line" />
      <point x="512.0" y="347.0" type="line" />
      <point x="512.0" y="640.0" type="line" />
      <point x="640.0" y="640.0" type="line" />
      <point x="640.0" y="293.0" type="line" />
      <point x="347.0" y="0.0" type="line" />
    </contour>
  </outline>
</glyph>
<glyph name="963" format="2">
  <advance width="768" />
  <unicode hex="03C3" />
  <outline>
    <contour>
      <point x="0.0" y="165.0" type="line" />
      <point x="0.0" y="475.0" type="line" />
      <point x="165.0" y="640.0" type="line" />
      <point x="640.0" y="640.0" type="line" />
      <point x="640.0" y="512.0" type="line" />
      <point x="512.0" y="512.0" type="line" />
      <point x="512.0" y="165.0" type="line" />
      <point x="347.0" y="0.0" type="line" />
      <point x="165.0" y="0.0" type="line" />
    </contour>
    <contour>
      <point x="128.0" y="219.0" type="line" />
      <point x="219.0" y="128.0" type="line" />
      <point x="293.0" y="128.0" type="line" />
      <point x="384.0" y="219.0" type="line" />
      <point x="384.0" y="421.0" type="line" />
      <point x="293.0" y="512.0" type="line" />
      <point x="219.0" y="512.0" type="line" />
      <point x="128.0" y="421.0" type="line" />
    </contour>
  </outline>
</glyph>
<glyph name="967" format="2">
  <advance width="768" />
  <unicode hex="03C7" />
  <outline>
    <contour>
      <point x="0.0" y="0.0" type="line" />
      <point x="0.0" y="219.0" type="line" />
      <point x="229.0" y="448.0" type="line" />
      <point x="0.0" y="677.0" type="line" />
      <point x="91.0" y="768.0" type="line" />
      <point x="320.0" y="539.0" type="line" />
      <point x="512.0" y="731.0" type="line" />
      <point x="512.0" y="896.0" type="line" />
      <point x="640.0" y="896.0" type="line" />
      <point x="640.0" y="677.0" type="line" />
      <point x="411.0" y="448.0" type="line" />
      <point x="640.0" y="219.0" type="line" />
      <point x="549.0" y="128.0" type="line" />
      <point x="320.0" y="357.0" type="line" />
      <point x="128.0" y="165.0" type="line" />
      <point x="128.0" y="0.0" type="line" />
    </contour>
  </outline>
</glyph>
<glyph name="uni2102" format="2">
  <advance width="768" />
  <unicode hex="2102" />
  <outline>
    <contour>
      <point x="0.0" y="165.0" type="line" />
      <point x="0.0" y="731.0" type="line" />
      <point x="165.0" y="896.0" type="line" />
      <point x="475.0" y="896.0" type="line" />
      <point x="640.0" y="731.0" type="line" />
      <point x="549.0" y="640.0" type="line" />
      <point x="421.0" y="768.0" type="line" />
      <point x="256.0" y="768.0" type="line" />
      <point x="256.0" y="128.0" type="line" />
      <point x="421.0" y="128.0" type="line" />
      <point x="549.0" y="256.0" type="line" />
      <point x="640.0" y="165.0" type="line" />
      <point x="475.0" y="0.0" type="line" />
      <point x="165.0" y="0.0" type="line" />
    </contour>
  </outline>
</glyph>
<glyph name="uni2124" format="2">
  <advance width="768" />
  <unicode hex="2124" />
  <outline>
    <contour>
      <point x="0.0" y="0.0" type="line" />
      <point x="0.0" y="347.0" type="line" />
      <point x="384.0" y="731.0" type="line" />
      <point x="384.0" y="768.0" type="line" />
      <point x="0.0" y="768.0" type="line" />
      <point x="0.0" y="896.0" type="line" />
      <point x="640.0" y="896.0" type="line" />
      <point x="640.0" y="549.0" type="line" />
      <point x="256.0" y="165.0" type="line" />
      <point x="256.0" y="128.0" type="line" />
      <point x="640.0" y="128.0" type="line" />
      <point x="640.0" y="0.0" type="line" />
    </contour>
  </outline>
</glyph>
<glyph name="arrowright" format="2">
  <advance width="768" />
  <unicode hex="2192" />
  <outline>
    <contour>
      <point x="0.0" y="384.0" type="line" />
      <point x="384.0" y="384.0" type="line" />
      <point x="384.0" y="165.0" type="line" />
      <point x="640.0" y="421.0" type="line" />
      <point x="640.0" y="475.0" type="line" />
      <point x="384.0" y="731.0" type="line" />
      <point x="384.0" y="512.0" type="line" />
      <point x="0.0" y="512.0" type="line" />
    </contour>
  </outline>
</glyph>
<glyph name="8704" format="2">
  <advance width="1536" />
  <unicode hex="2200" />
  <outline>
    <contour>
      <point x="256.0" y="896.0" type="line" />
      <point x="401.0" y="896.0" type="line" />
      <point x="593.0" y="512.0" type="line" />
      <point x="815.0" y="512.0" type="line" />
      <point x="1007.0" y="896.0" type="line" />
      <point x="1152.0" y="896.0" type="line" />
      <point x="704.0" y="0.0" type="line" />
    </contour>
    <contour>
      <point x="657.0" y="384.0" type="line" />
      <point x="704.0" y="290.0" type="line" />
      <point x="751.0" y="384.0" type="line" />
    </contour>
  </outline>
</glyph>
<glyph name="existential" format="2">
  <advance width="1536" />
  <unicode hex="2203" />
  <outline>
    <contour>
      <point x="384.0" y="0.0" type="line" />
      <point x="384.0" y="128.0" type="line" />
      <point x="896.0" y="128.0" type="line" />
      <point x="896.0" y="384.0" type="line" />
      <point x="512.0" y="384.0" type="line" />
      <point x="512.0" y="512.0" type="line" />
      <point x="896.0" y="512.0" type="line" />
      <point x="896.0" y="768.0" type="line" />
      <point x="384.0" y="768.0" type="line" />
      <point x="384.0" y="896.0" type="line" />
      <point x="1024.0" y="896.0" type="line" />
      <point x="1024.0" y="0.0" type="line" />
    </contour>
  </outline>
</glyph>
<glyph name="8709" format="2">
  <advance width="1536" />
  <unicode hex="2205" />
  <outline>
    <contour>
      <point x="256.0" y="91.0" type="line" />
      <point x="357.0" y="192.0" type="line" />
      <point x="256.0" y="293.0" type="line" />
      <point x="256.0" y="603.0" type="line" />
      <point x="549.0" y="896.0" type="line" />
      <point x="859.0" y="896.0" type="line" />
      <point x="960.0" y="795.0" type="line" />
      <point x="1061.0" y="896.0" type="line" />
      <point x="1152.0" y="805.0" type="line" />
      <point x="1051.0" y="704.0" type="line" />
      <point x="1152.0" y="603.0" type="line" />
      <point x="1152.0" y="293.0" type="line" />
      <point x="859.0" y="0.0" type="line" />
      <point x="549.0" y="0.0" type="line" />
      <point x="448.0" y="101.0" type="line" />
      <point x="347.0" y="0.0" type="line" />
    </contour>
    <contour>
      <point x="384.0" y="347.0" type="line" />
      <point x="448.0" y="283.0" type="line" />
      <point x="869.0" y="704.0" type="line" />
      <point x="805.0" y="768.0" type="line" />
      <point x="603.0" y="768.0" type="line" />
      <point x="384.0" y="549.0" type="line" />
    </contour>
    <contour>
      <point x="539.0" y="192.0" type="line" />
      <point x="603.0" y="128.0" type="line" />
      <point x="805.0" y="128.0" type="line" />
      <point x="1024.0" y="347.0" type="line" />
      <point x="1024.0" y="549.0" type="line" />
      <point x="960.0" y="613.0" type="line" />
    </contour>
  </outline>
</glyph>
<glyph name="8728" format="2">
  <advance width="768" />
  <unicode hex="2218" />
  <outline>
    <contour>
      <point x="128.0" y="421.0" type="line" />
      <point x="128.0" y="475.0" type="line" />
      <point x="293.0" y="640.0" type="line" />
      <point x="347.0" y="640.0" type="line" />
      <point x="512.0" y="475.0" type="line" />
      <point x="512.0" y="421.0" type="line" />
      <point x="347.0" y="256.0" type="line" />
      <point x="293.0" y="256.0" type="line" />
    </contour>
    <contour>
      <point x="283.0" y="448.0" type="line" />
      <point x="320.0" y="411.0" type="line" />
      <point x="357.0" y="448.0" type="line" />
      <point x="320.0" y="485.0" type="line" />
    </contour>
  </outline>
</glyph>
<glyph name="infinity" format="2">
  <advance width="768" />
  <unicode hex="221E" />
  <outline>
    <contour>
      <point x="0.0" y="421.0" type="line" />
      <point x="0.0" y="475.0" type="line" />
      <point x="165.0" y="640.0" type="line" />
      <point x="219.0" y="640.0" type="line" />
      <point x="320.0" y="539.0" type="line" />
      <point x="421.0" y="640.0" type="line" />
      <point x="475.0" y="640.0" type="line" />
      <point x="640.0" y="475.0" type="line" />
      <point x="640.0" y="421.0" type="line" />
      <point x="475.0" y="256.0" type="line" />
      <point x="421.0" y="256.0" type="line" />
      <point x="320.0" y="357.0" type="line" />
      <point x="219.0" y="256.0" type="line" />
      <point x="165.0" y="256.0" type="line" />
    </contour>
    <contour>
      <point x="155.0" y="448.0" type="line" />
      <point x="192.0" y="411.0" type="line" />
      <point x="229.0" y="448.0" type="line" />
      <point x="192.0" y="485.0" type="line" />
    </contour>
    <contour>
      <point x="411.0" y="448.0" type="line" />
      <point x="448.0" y="411.0" type="line" />
      <point x="485.0" y="448.0" type="line" />
      <point x="448.0" y="485.0" type="line" />
    </contour>
  </outline>
</glyph>
<glyph name="8743" format="2">
  <advance width="768" />
  <unicode hex="2227" />
  <outline>
    <contour>
      <point x="0.0" y="347.0" type="line" />
      <point x="320.0" y="667.0" type="line" />
      <point x="640.0" y="347.0" type="line" />
      <point x="549.0" y="256.0" type="line" />
      <point x="320.0" y="485.0" type="line" />
      <point x="91.0" y="256.0" type="line" />
    </contour>
  </outline>
</glyph>
<glyph name="logicalor" format="2">
  <advance width="768" />
  <unicode hex="2228" />
  <outline>
    <contour>
      <point x="0.0" y="549.0" type="line" />
      <point x="320.0" y="229.0" type="line" />
      <point x="640.0" y="549.0" type="line" />
      <point x="549.0" y="640.0" type="line" />
      <point x="320.0" y="411.0" type="line" />
      <point x="91.0" y="640.0" type="line" />
    </contour>
  </outline>
</glyph>
<glyph name="greaterequal" format="2">
  <advance width="768" />
  <unicode hex="2265" />
  <outline>
    <contour>
      <point x="128.0" y="0.0" type="line" />
      <point x="128.0" y="-128.0" type="line" />
      <point x="512.0" y="-128.0" type="line" />
      <point x="512.0" y="0.0" type="line" />
    </contour>
    <contour>
      <point x="128.0" y="219.0" type="line" />
      <point x="219.0" y="128.0" type="line" />
      <point x="539.0" y="448.0" type="line" />
      <point x="219.0" y="768.0" type="line" />
      <point x="128.0" y="677.0" type="line" />
      <point x="357.0" y="448.0" type="line" />
    </contour>
  </outline>
</glyph>
<glyph name="10216" format="2">
  <advance width="768" />
  <unicode hex="27E8" />
  <outline>
    <contour>
      <point x="0.0" y="293.0" type="line" />
      <point x="0.0" y="347.0" type="line" />
      <point x="549.0" y="896.0" type="line" />
      <point x="640.0" y="805.0" type="line" />
      <point x="155.0" y="320.0" type="line" />
      <point x="640.0" y="-165.0" type="line" />
      <point x="549.0" y="-256.0" type="line" />
    </contour>
  </outline>
</glyph>
